<svg width="38" height="13" viewBox="0 0 38 13" fill="none" xmlns="http://www.w3.org/2000/svg">
<path d="M2.23977 0H38L35.7602 13H0L2.23977 0Z" fill="#F0F0F2"/>
<path d="M4.024 10.5001L5.02 4.2481C5.132 3.5521 5.42 3.0201 5.884 2.6521C6.356 2.2841 6.948 2.1001 7.66 2.1001H11.044L10.768 3.7801H7.9C7.636 3.7801 7.424 3.8521 7.264 3.9961C7.104 4.1401 7.004 4.3441 6.964 4.6081L6.772 5.8201H10.06L9.796 7.4881H6.508L6.04 10.5001H4.024Z" fill="#A0A0B0"/>
<path d="M12.7253 10.6561C12.2213 10.6561 11.7813 10.5361 11.4053 10.2961C11.0373 10.0561 10.7493 9.7241 10.5413 9.3001C10.3413 8.8761 10.2413 8.3921 10.2413 7.8481C10.2413 7.3121 10.3253 6.8241 10.4933 6.3841C10.6613 5.9361 10.9013 5.5481 11.2133 5.2201C11.5333 4.8921 11.9053 4.6401 12.3293 4.4641C12.7613 4.2881 13.2333 4.2001 13.7453 4.2001C14.1373 4.2001 14.5173 4.2601 14.8853 4.3801C15.2613 4.4921 15.5973 4.6681 15.8933 4.9081C16.1893 5.1401 16.4253 5.4401 16.6013 5.8081C16.7773 6.1681 16.8653 6.6001 16.8653 7.1041C16.8653 7.2161 16.8573 7.3281 16.8413 7.4401C16.8333 7.5521 16.8133 7.6921 16.7813 7.8601L16.3493 10.5001H14.5253L14.6693 9.5641H14.6333C14.4013 9.9001 14.1133 10.1681 13.7693 10.3681C13.4253 10.5601 13.0773 10.6561 12.7253 10.6561ZM13.4093 9.0481C13.6973 9.0481 13.9573 8.9641 14.1893 8.7961C14.4293 8.6281 14.6173 8.4081 14.7533 8.1361C14.8973 7.8561 14.9693 7.5481 14.9693 7.2121C14.9693 6.9481 14.9173 6.7161 14.8133 6.5161C14.7173 6.3081 14.5733 6.1441 14.3813 6.0241C14.1973 5.9041 13.9693 5.8441 13.6973 5.8441C13.4173 5.8441 13.1573 5.9241 12.9173 6.0841C12.6853 6.2441 12.4973 6.4641 12.3533 6.7441C12.2173 7.0241 12.1493 7.3321 12.1493 7.6681C12.1493 7.9561 12.2013 8.2041 12.3053 8.4121C12.4093 8.6201 12.5533 8.7801 12.7373 8.8921C12.9213 8.9961 13.1453 9.0481 13.4093 9.0481Z" fill="#A0A0B0"/>
<path d="M17.1365 10.4881L17.3765 9.0121H20.3765C20.4805 9.0121 20.5685 8.9961 20.6405 8.9641C20.7125 8.9241 20.7685 8.8721 20.8085 8.8081C20.8565 8.7361 20.8805 8.6601 20.8805 8.5801C20.8805 8.4601 20.8405 8.3641 20.7605 8.2921C20.6885 8.2201 20.5845 8.1841 20.4485 8.1841H19.5005C19.1325 8.1841 18.8005 8.1161 18.5045 7.9801C18.2165 7.8441 17.9885 7.6481 17.8205 7.3921C17.6605 7.1281 17.5805 6.8121 17.5805 6.4441C17.5805 6.0681 17.6725 5.7201 17.8565 5.4001C18.0485 5.0801 18.3205 4.8241 18.6725 4.6321C19.0325 4.4401 19.4565 4.3441 19.9445 4.3441H22.8125L22.5725 5.8201H19.9325C19.8365 5.8201 19.7525 5.8401 19.6805 5.8801C19.6085 5.9121 19.5525 5.9601 19.5125 6.0241C19.4805 6.0801 19.4605 6.1441 19.4525 6.2161C19.4525 6.3361 19.4845 6.4281 19.5485 6.4921C19.6205 6.5561 19.7205 6.5881 19.8485 6.5881H20.7845C21.1925 6.5881 21.5365 6.6601 21.8165 6.8041C22.1045 6.9481 22.3245 7.1481 22.4765 7.4041C22.6365 7.6521 22.7165 7.9441 22.7165 8.2801C22.7165 8.6881 22.6125 9.0601 22.4045 9.3961C22.1965 9.7241 21.9125 9.9881 21.5525 10.1881C21.1925 10.3881 20.7805 10.4881 20.3165 10.4881H17.1365Z" fill="#A0A0B0"/>
<path d="M25.004 10.5001C24.5 10.5001 24.112 10.3721 23.84 10.1161C23.568 9.8521 23.432 9.4961 23.432 9.0481C23.432 8.9121 23.444 8.7761 23.468 8.6401L24.404 2.8441H26.264L25.388 8.3641C25.364 8.5001 25.352 8.5961 25.352 8.6521C25.352 8.7401 25.38 8.8121 25.436 8.8681C25.492 8.9161 25.564 8.9401 25.652 8.9401H26.984L26.744 10.5001H25.004ZM22.916 5.8681L23.156 4.3441H27.716L27.476 5.8681H22.916Z" fill="#A0A0B0"/>
<path d="M34.3486 4.3441L33.7966 7.9561C33.7166 8.4761 33.5326 8.9401 33.2446 9.3481C32.9646 9.7561 32.5886 10.0761 32.1166 10.3081C31.6446 10.5321 31.0886 10.6441 30.4486 10.6441C29.8886 10.6441 29.4006 10.5401 28.9846 10.3321C28.5686 10.1161 28.2446 9.8241 28.0126 9.4561C27.7886 9.0801 27.6766 8.6601 27.6766 8.1961C27.6766 8.1161 27.6806 8.0281 27.6886 7.9321C27.7046 7.8361 27.7166 7.7481 27.7246 7.6681L28.2526 4.3441H30.1126L29.5846 7.7401C29.5766 7.7881 29.5686 7.8361 29.5606 7.8841C29.5606 7.9321 29.5606 7.9721 29.5606 8.0041C29.5606 8.3081 29.6566 8.5561 29.8486 8.7481C30.0406 8.9401 30.2966 9.0361 30.6166 9.0361C30.8486 9.0361 31.0566 8.9841 31.2406 8.8801C31.4326 8.7681 31.5926 8.6201 31.7206 8.4361C31.8486 8.2441 31.9286 8.0361 31.9606 7.8121L32.5006 4.3441H34.3486Z" fill="#A0A0B0"/>
</svg>
