<svg width="126" height="26" viewBox="0 0 126 26" fill="none" xmlns="http://www.w3.org/2000/svg">
<g id="Group 23">
<g id="Group 19">
<path id="Rectangle 17" d="M4.47955 0H126L121.52 26H0L4.47955 0Z" fill="#FFDD44"/>
<g id="Fastudent">
<path d="M8.10571 21L10.0977 8.49598C10.3217 7.10398 10.8977 6.03998 11.8257 5.30398C12.7697 4.56798 13.9537 4.19998 15.3777 4.19998H22.1457L21.5937 7.55998H15.8577C15.3297 7.55998 14.9057 7.70398 14.5857 7.99198C14.2657 8.27998 14.0657 8.68798 13.9857 9.21598L13.6017 11.64H20.1777L19.6497 14.976H13.0737L12.1377 21H8.10571Z" fill="#101035"/>
<path d="M25.5083 21.312C24.5003 21.312 23.6203 21.072 22.8683 20.592C22.1323 20.112 21.5563 19.448 21.1403 18.6C20.7403 17.752 20.5403 16.784 20.5403 15.696C20.5403 14.624 20.7083 13.648 21.0443 12.768C21.3803 11.872 21.8603 11.096 22.4843 10.44C23.1243 9.78398 23.8683 9.27998 24.7163 8.92798C25.5803 8.57598 26.5243 8.39998 27.5483 8.39998C28.3323 8.39998 29.0923 8.51998 29.8283 8.75998C30.5803 8.98398 31.2523 9.33598 31.8443 9.81598C32.4363 10.28 32.9083 10.88 33.2603 11.616C33.6123 12.336 33.7883 13.2 33.7883 14.208C33.7883 14.432 33.7723 14.656 33.7403 14.88C33.7243 15.104 33.6843 15.384 33.6203 15.72L32.7563 21H29.1083L29.3963 19.128H29.3243C28.8603 19.8 28.2843 20.336 27.5963 20.736C26.9083 21.12 26.2123 21.312 25.5083 21.312ZM26.8763 18.096C27.4523 18.096 27.9723 17.928 28.4363 17.592C28.9163 17.256 29.2923 16.816 29.5643 16.272C29.8523 15.712 29.9963 15.096 29.9963 14.424C29.9963 13.896 29.8923 13.432 29.6843 13.032C29.4923 12.616 29.2043 12.288 28.8203 12.048C28.4523 11.808 27.9963 11.688 27.4523 11.688C26.8923 11.688 26.3723 11.848 25.8923 12.168C25.4283 12.488 25.0523 12.928 24.7643 13.488C24.4923 14.048 24.3563 14.664 24.3563 15.336C24.3563 15.912 24.4603 16.408 24.6683 16.824C24.8763 17.24 25.1643 17.56 25.5323 17.784C25.9003 17.992 26.3483 18.096 26.8763 18.096Z" fill="#101035"/>
<path d="M34.3308 20.976L34.8108 18.024H40.8108C41.0188 18.024 41.1948 17.992 41.3388 17.928C41.4828 17.848 41.5948 17.744 41.6748 17.616C41.7708 17.472 41.8188 17.32 41.8188 17.16C41.8188 16.92 41.7388 16.728 41.5788 16.584C41.4348 16.44 41.2268 16.368 40.9548 16.368H39.0588C38.3228 16.368 37.6588 16.232 37.0668 15.96C36.4908 15.688 36.0348 15.296 35.6988 14.784C35.3788 14.256 35.2188 13.624 35.2188 12.888C35.2188 12.136 35.4028 11.44 35.7708 10.8C36.1548 10.16 36.6988 9.64798 37.4028 9.26398C38.1228 8.87998 38.9708 8.68798 39.9468 8.68798H45.6828L45.2028 11.64H39.9228C39.7308 11.64 39.5628 11.68 39.4188 11.76C39.2748 11.824 39.1628 11.92 39.0828 12.048C39.0188 12.16 38.9788 12.288 38.9628 12.432C38.9628 12.672 39.0268 12.856 39.1548 12.984C39.2988 13.112 39.4988 13.176 39.7548 13.176H41.6268C42.4428 13.176 43.1308 13.32 43.6908 13.608C44.2668 13.896 44.7068 14.296 45.0108 14.808C45.3308 15.304 45.4908 15.888 45.4908 16.56C45.4908 17.376 45.2828 18.12 44.8668 18.792C44.4508 19.448 43.8828 19.976 43.1628 20.376C42.4428 20.776 41.6188 20.976 40.6908 20.976H34.3308Z" fill="#101035"/>
<path d="M50.0658 21C49.0578 21 48.2818 20.744 47.7378 20.232C47.1938 19.704 46.9218 18.992 46.9218 18.096C46.9218 17.824 46.9458 17.552 46.9938 17.28L48.8658 5.68798H52.5858L50.8338 16.728C50.7858 17 50.7618 17.192 50.7618 17.304C50.7618 17.48 50.8178 17.624 50.9298 17.736C51.0418 17.832 51.1858 17.88 51.3618 17.88H54.0258L53.5458 21H50.0658ZM45.8898 11.736L46.3698 8.68798H55.4898L55.0098 11.736H45.8898Z" fill="#101035"/>
<path d="M68.7548 8.68798L67.6508 15.912C67.4908 16.952 67.1228 17.88 66.5468 18.696C65.9868 19.512 65.2348 20.152 64.2908 20.616C63.3468 21.064 62.2348 21.288 60.9548 21.288C59.8348 21.288 58.8588 21.08 58.0268 20.664C57.1948 20.232 56.5468 19.648 56.0828 18.912C55.6348 18.16 55.4108 17.32 55.4108 16.392C55.4108 16.232 55.4188 16.056 55.4348 15.864C55.4668 15.672 55.4908 15.496 55.5068 15.336L56.5628 8.68798H60.2828L59.2268 15.48C59.2108 15.576 59.1948 15.672 59.1788 15.768C59.1788 15.864 59.1788 15.944 59.1788 16.008C59.1788 16.616 59.3708 17.112 59.7548 17.496C60.1388 17.88 60.6508 18.072 61.2908 18.072C61.7548 18.072 62.1708 17.968 62.5388 17.76C62.9228 17.536 63.2428 17.24 63.4988 16.872C63.7548 16.488 63.9148 16.072 63.9788 15.624L65.0588 8.68798H68.7548Z" fill="#101035"/>
<path d="M74.8988 21.264C73.5868 21.264 72.4668 21.016 71.5388 20.52C70.6268 20.008 69.9228 19.296 69.4268 18.384C68.9468 17.456 68.7068 16.392 68.7068 15.192C68.7068 14.264 68.8668 13.392 69.1868 12.576C69.5068 11.744 69.9548 11.016 70.5308 10.392C71.1068 9.76798 71.7868 9.27998 72.5708 8.92798C73.3708 8.57598 74.2348 8.39998 75.1628 8.39998C75.8348 8.39998 76.4188 8.48798 76.9148 8.66398C77.4268 8.82398 77.8508 9.03198 78.1868 9.28798C78.5388 9.52798 78.7948 9.77598 78.9548 10.032H79.0268L80.0348 3.47998H83.7548L82.0268 14.784C81.8028 16.192 81.3548 17.384 80.6828 18.36C80.0108 19.32 79.1788 20.048 78.1868 20.544C77.1948 21.024 76.0988 21.264 74.8988 21.264ZM75.1388 18.072C75.7308 18.072 76.2588 17.912 76.7228 17.592C77.1868 17.272 77.5468 16.848 77.8028 16.32C78.0748 15.776 78.2108 15.192 78.2108 14.568C78.2108 13.928 78.0828 13.4 77.8268 12.984C77.5868 12.552 77.2668 12.224 76.8668 12C76.4668 11.776 76.0348 11.664 75.5708 11.664C74.9948 11.664 74.4748 11.824 74.0108 12.144C73.5628 12.448 73.2028 12.864 72.9308 13.392C72.6748 13.92 72.5468 14.496 72.5468 15.12C72.5468 15.696 72.6508 16.208 72.8588 16.656C73.0668 17.104 73.3628 17.456 73.7468 17.712C74.1468 17.952 74.6108 18.072 75.1388 18.072Z" fill="#101035"/>
<path d="M89.363 21C88.115 21 87.003 20.808 86.027 20.424C85.067 20.024 84.307 19.416 83.747 18.6C83.203 17.784 82.931 16.768 82.931 15.552C82.931 14.512 83.115 13.56 83.483 12.696C83.851 11.816 84.363 11.056 85.019 10.416C85.675 9.77598 86.443 9.27998 87.323 8.92798C88.203 8.57598 89.155 8.39998 90.179 8.39998C91.123 8.39998 91.931 8.55998 92.603 8.87998C93.291 9.18398 93.819 9.60798 94.187 10.152C94.555 10.68 94.739 11.264 94.739 11.904C94.739 12.704 94.547 13.4 94.163 13.992C93.779 14.568 93.251 15.056 92.579 15.456C91.923 15.84 91.155 16.144 90.275 16.368C89.411 16.592 88.491 16.736 87.515 16.8C87.387 16.816 87.275 16.824 87.179 16.824C87.083 16.824 86.987 16.816 86.891 16.8C87.083 17.152 87.395 17.432 87.827 17.64C88.259 17.832 88.827 17.928 89.531 17.928H92.819L92.339 21H89.363ZM86.699 14.52C86.731 14.52 86.763 14.52 86.795 14.52C86.843 14.52 86.899 14.52 86.963 14.52C87.779 14.424 88.451 14.296 88.979 14.136C89.507 13.976 89.915 13.8 90.203 13.608C90.507 13.416 90.715 13.216 90.827 13.008C90.955 12.8 91.019 12.608 91.019 12.432C91.019 12.176 90.915 11.952 90.707 11.76C90.499 11.568 90.179 11.472 89.747 11.472C89.187 11.472 88.683 11.632 88.235 11.952C87.787 12.256 87.427 12.64 87.155 13.104C86.899 13.552 86.747 14 86.699 14.448C86.699 14.464 86.699 14.48 86.699 14.496C86.699 14.496 86.699 14.504 86.699 14.52Z" fill="#101035"/>
<path d="M94.285 21L95.413 13.776C95.573 12.736 95.933 11.816 96.493 11.016C97.069 10.2 97.829 9.55998 98.773 9.09598C99.717 8.63198 100.829 8.39998 102.109 8.39998C103.229 8.39998 104.205 8.61598 105.037 9.04798C105.869 9.46398 106.509 10.048 106.957 10.8C107.405 11.536 107.629 12.368 107.629 13.296C107.629 13.456 107.621 13.632 107.605 13.824C107.589 14 107.565 14.176 107.533 14.352L106.477 21H102.781L103.837 14.208C103.853 14.112 103.861 14.024 103.861 13.944C103.877 13.848 103.885 13.76 103.885 13.68C103.885 13.072 103.693 12.576 103.309 12.192C102.925 11.808 102.405 11.616 101.749 11.616C101.301 11.616 100.885 11.728 100.501 11.952C100.133 12.176 99.821 12.472 99.565 12.84C99.325 13.208 99.165 13.624 99.085 14.088L98.005 21H94.285Z" fill="#101035"/>
<path d="M112.597 21C111.589 21 110.813 20.744 110.269 20.232C109.725 19.704 109.453 18.992 109.453 18.096C109.453 17.824 109.477 17.552 109.525 17.28L111.397 5.68798H115.117L113.365 16.728C113.317 17 113.293 17.192 113.293 17.304C113.293 17.48 113.349 17.624 113.461 17.736C113.573 17.832 113.717 17.88 113.893 17.88H116.557L116.077 21H112.597ZM108.421 11.736L108.901 8.68798H118.021L117.541 11.736H108.421Z" fill="#101035"/>
</g>
</g>
</g>
</svg>
